# xmcd
# 
# Track frame offsets:
#     150
#     2289
#     36031
#     69450
#     109157
#     148369
#     183494
#     213026
#     242426
#     268593
# 
# Disc length: 4199
# 
# Revision: 5
# Processed by: cddbd v1.5.2PL0 Copyright (c) Steve Scherf et al.
# Submitted via: fre:ac v1.1beta1
# 
DISCID=8310650a
DTITLE=上原ひろみ - Beyond Standard
DYEAR=2008
DGENRE=J-Jazz
TTITLE0=Intro：Softly as in a Morning Sunrise (朝日の如くさわやかに)
TTITLE1=Softly as in a Morning Sunrise (朝日の如くさわやかに)
TTITLE2=Clair de Lune (月の光)
TTITLE3=Caravan (キャラヴァン)
TTITLE4=Ue Wo Muite Aruko (上を向いて歩こう)
TTITLE5=My Favorite Things
TTITLE6=Led Boots
TTITLE7=XYG
TTITLE8=I've Got Rhythm
TTITLE9=Return of Kung Fu World Champion - LIVE
EXTD=YEAR: 2008
EXTT0=
EXTT1=
EXTT2=
EXTT3=
EXTT4=
EXTT5=
EXTT6=
EXTT7=
EXTT8=
EXTT9=
PLAYORDER=
